# xmcd
#
# Track frame offsets:
#	150
#	10365
#	30870
#	45435
#	61745
#	80320
#
# Disc length: 1206 seconds
#
# Revision: 0
# Processed by: cddbd v1.4PL0 Copyright (c) Steve Scherf et al.
# Submitted via: EZCDDA 4.3.3.2
#
DISCID=3404b406
DTITLE=Mlle Chomb and Dom Kiris - Troubadours du désordre
DYEAR=1900
DGENRE=
TTITLE0=Johnny tu n'es pas un ange
TTITLE1=Qui veut m'entendre
TTITLE2=La cité des Anges
TTITLE3=La traversée de Paris
TTITLE4=Même si personne
TTITLE5=Mon amant de Saint-Jean
EXTD=
EXTT0=
EXTT1=
EXTT2=
EXTT3=
EXTT4=
EXTT5=
PLAYORDER=
